<svg width="20" height="20" viewBox="0 0 20 20" fill="none" xmlns="http://www.w3.org/2000/svg">
<path d="M3.75 17.5L16.25 17.5C16.5815 17.5 16.8995 17.3683 17.1339 17.1339C17.3683 16.8995 17.5 16.5815 17.5 16.25L17.5 3.75C17.5 3.41848 17.3683 3.10054 17.1339 2.86612C16.8995 2.6317 16.5815 2.5 16.25 2.5L3.75 2.5C3.41848 2.5 3.10054 2.6317 2.86612 2.86612C2.6317 3.10054 2.5 3.41848 2.5 3.75L2.5 16.25C2.5 16.5815 2.63169 16.8995 2.86612 17.1339C3.10054 17.3683 3.41848 17.5 3.75 17.5ZM15 14.375L5 14.375C4.83424 14.375 4.67527 14.3092 4.55806 14.1919C4.44085 14.0747 4.375 13.9158 4.375 13.75C4.375 13.5842 4.44085 13.4253 4.55806 13.3081C4.67527 13.1908 4.83424 13.125 5 13.125L15 13.125C15.1658 13.125 15.3247 13.1908 15.4419 13.3081C15.5592 13.4253 15.625 13.5842 15.625 13.75C15.625 13.9158 15.5592 14.0747 15.4419 14.1919C15.3247 14.3092 15.1658 14.375 15 14.375ZM15 10.625L12.5 10.625C12.3342 10.625 12.1753 10.5592 12.0581 10.4419C11.9408 10.3247 11.875 10.1658 11.875 10C11.875 9.83424 11.9408 9.67527 12.0581 9.55806C12.1753 9.44085 12.3342 9.375 12.5 9.375L15 9.375C15.1658 9.375 15.3247 9.44085 15.4419 9.55806C15.5592 9.67527 15.625 9.83424 15.625 10C15.625 10.1658 15.5592 10.3247 15.4419 10.4419C15.3247 10.5592 15.1658 10.625 15 10.625ZM11.875 5.625L15 5.625C15.1658 5.625 15.3247 5.69085 15.4419 5.80806C15.5592 5.92527 15.625 6.08424 15.625 6.25C15.625 6.41576 15.5592 6.57473 15.4419 6.69194C15.3247 6.80915 15.1658 6.875 15 6.875L11.875 6.875C11.7092 6.875 11.5503 6.80915 11.4331 6.69194C11.3158 6.57473 11.25 6.41576 11.25 6.25C11.25 6.08424 11.3158 5.92527 11.4331 5.80806C11.5503 5.69085 11.7092 5.625 11.875 5.625ZM4.48828 8.80547L5.88359 7.65625L5.45859 5.9375C5.44376 5.87777 5.44689 5.81499 5.4676 5.75703C5.48831 5.69908 5.52567 5.64852 5.575 5.61172C5.6291 5.57184 5.6945 5.55022 5.76172 5.55C5.81667 5.55033 5.87057 5.56516 5.91797 5.59297L7.5 6.52031L9.07969 5.58984C9.13271 5.55867 9.19376 5.54383 9.25518 5.5472C9.3166 5.55057 9.37566 5.57199 9.42496 5.60877C9.47426 5.64556 9.51161 5.69608 9.53233 5.754C9.55304 5.81192 9.5562 5.87467 9.54141 5.93438L9.11641 7.65313L10.5117 8.80547C10.5597 8.84515 10.5947 8.89825 10.6123 8.95797C10.6299 9.01769 10.6292 9.08129 10.6104 9.14064C10.5916 9.19998 10.5555 9.25236 10.5068 9.29105C10.458 9.32975 10.3988 9.35299 10.3367 9.35781L8.49453 9.5L7.78672 11.1406C7.76248 11.1965 7.72243 11.2441 7.67149 11.2776C7.62054 11.311 7.56094 11.3288 7.5 11.3288C7.43906 11.3288 7.37946 11.311 7.32851 11.2776C7.27757 11.2441 7.23752 11.1965 7.21328 11.1406L6.50547 9.5L4.66328 9.35781C4.60122 9.35299 4.54201 9.32974 4.49324 9.29105C4.44447 9.25236 4.40838 9.19998 4.38957 9.14064C4.37077 9.08129 4.37012 9.01768 4.38771 8.95797C4.40529 8.89825 4.44032 8.84515 4.48828 8.80547Z" fill="#8917EE"/>
</svg>
